<mxfile host="app.diagrams.net" modified="2023-08-18T15:49:03.216Z" agent="Mozilla/5.0 (Windows NT 10.0; Win64; x64) AppleWebKit/537.36 (KHTML, like Gecko) Chrome/116.0.0.0 Safari/537.36" etag="H7UVB2SJAQAmvW-sNOLQ" version="21.6.8" type="github">
  <diagram name="Page-1" id="y3rOd-dJo2Fo4MX-2iXX">
    <mxGraphModel dx="928" dy="843" grid="0" gridSize="10" guides="1" tooltips="1" connect="1" arrows="1" fold="1" page="0" pageScale="1" pageWidth="1600" pageHeight="900" math="0" shadow="0">
      <root>
        <mxCell id="0" />
        <mxCell id="1" parent="0" />
        <mxCell id="2" value="1" style="ellipse;aspect=fixed;strokeWidth=2;whiteSpace=wrap;fillColor=#FF1F0F;" parent="1" vertex="1">
          <mxGeometry width="23" height="23" as="geometry" />
        </mxCell>
        <mxCell id="3" value="2" style="ellipse;aspect=fixed;strokeWidth=2;whiteSpace=wrap;fillColor=#FF0000;" parent="1" vertex="1">
          <mxGeometry x="73" width="23" height="23" as="geometry" />
        </mxCell>
        <mxCell id="0-xUmUD8GGzfCyBg8B6Y-17" style="edgeStyle=orthogonalEdgeStyle;rounded=0;orthogonalLoop=1;jettySize=auto;html=1;" edge="1" parent="1" source="4">
          <mxGeometry relative="1" as="geometry">
            <mxPoint x="214.04761904761904" y="11.500000000000114" as="targetPoint" />
          </mxGeometry>
        </mxCell>
        <mxCell id="4" value="3" style="ellipse;aspect=fixed;strokeWidth=2;whiteSpace=wrap;fillColor=#FF0000;" parent="1" vertex="1">
          <mxGeometry x="148" width="23" height="23" as="geometry" />
        </mxCell>
        <mxCell id="5" value="2" style="ellipse;aspect=fixed;strokeWidth=2;whiteSpace=wrap;fillColor=#FF3E17;" parent="1" vertex="1">
          <mxGeometry y="74" width="23" height="23" as="geometry" />
        </mxCell>
        <mxCell id="6" value="3" style="ellipse;aspect=fixed;strokeWidth=2;whiteSpace=wrap;fillColor=#FF0000;" parent="1" vertex="1">
          <mxGeometry x="73" y="74" width="23" height="23" as="geometry" />
        </mxCell>
        <mxCell id="0-xUmUD8GGzfCyBg8B6Y-18" style="edgeStyle=orthogonalEdgeStyle;rounded=0;orthogonalLoop=1;jettySize=auto;html=1;" edge="1" parent="1" source="7">
          <mxGeometry relative="1" as="geometry">
            <mxPoint x="216" y="86" as="targetPoint" />
          </mxGeometry>
        </mxCell>
        <mxCell id="7" value="4" style="ellipse;aspect=fixed;strokeWidth=2;whiteSpace=wrap;" parent="1" vertex="1">
          <mxGeometry x="147" y="73" width="25" height="25" as="geometry" />
        </mxCell>
        <mxCell id="8" value="" style="curved=1;startArrow=none;endArrow=block;exitX=1.0169836956521738;exitY=0.5084918478260869;entryX=0.016983695652173912;entryY=0.5084918478260869;" parent="1" source="2" target="3" edge="1">
          <mxGeometry relative="1" as="geometry">
            <Array as="points" />
          </mxGeometry>
        </mxCell>
        <mxCell id="9" value="" style="curved=1;startArrow=none;endArrow=block;exitX=1.033967391304348;exitY=0.5084918478260869;entryX=-0.018002717391304348;entryY=0.5084918478260869;" parent="1" source="3" target="4" edge="1">
          <mxGeometry relative="1" as="geometry">
            <Array as="points" />
          </mxGeometry>
        </mxCell>
        <mxCell id="10" value="" style="curved=1;startArrow=none;endArrow=block;exitX=1.0169836956521738;exitY=0.516983695652174;entryX=0.016983695652173912;entryY=0.516983695652174;" parent="1" source="5" target="6" edge="1">
          <mxGeometry relative="1" as="geometry">
            <Array as="points" />
          </mxGeometry>
        </mxCell>
        <mxCell id="11" value="" style="curved=1;startArrow=none;endArrow=block;exitX=1.033967391304348;exitY=0.516983695652174;entryX=-0.00875;entryY=0.515625;" parent="1" source="6" target="7" edge="1">
          <mxGeometry relative="1" as="geometry">
            <Array as="points" />
          </mxGeometry>
        </mxCell>
        <mxCell id="0-xUmUD8GGzfCyBg8B6Y-11" value="&lt;font style=&quot;font-size: 6px;&quot;&gt;new_node&lt;/font&gt;" style="rounded=1;whiteSpace=wrap;html=1;" vertex="1" parent="1">
          <mxGeometry x="-21" y="202" width="43" height="20" as="geometry" />
        </mxCell>
        <mxCell id="0-xUmUD8GGzfCyBg8B6Y-12" value="0" style="ellipse;aspect=fixed;strokeWidth=2;whiteSpace=wrap;" vertex="1" parent="1">
          <mxGeometry x="-11" y="170" width="23" height="23" as="geometry" />
        </mxCell>
        <mxCell id="0-xUmUD8GGzfCyBg8B6Y-13" value="" style="curved=1;startArrow=none;endArrow=block;exitX=1.0169836956521738;exitY=0.516983695652174;entryX=0.016983695652173912;entryY=0.516983695652174;" edge="1" source="0-xUmUD8GGzfCyBg8B6Y-12" parent="1">
          <mxGeometry relative="1" as="geometry">
            <Array as="points" />
            <mxPoint x="62" y="182" as="targetPoint" />
          </mxGeometry>
        </mxCell>
        <mxCell id="0-xUmUD8GGzfCyBg8B6Y-14" value="&lt;font style=&quot;font-size: 6px;&quot;&gt;Curr&lt;/font&gt;" style="shape=trapezoid;perimeter=trapezoidPerimeter;whiteSpace=wrap;html=1;fixedSize=1;" vertex="1" parent="1">
          <mxGeometry x="337" y="229" width="57" height="21" as="geometry" />
        </mxCell>
        <mxCell id="0-xUmUD8GGzfCyBg8B6Y-19" value="1" style="ellipse;aspect=fixed;strokeWidth=2;whiteSpace=wrap;" vertex="1" parent="1">
          <mxGeometry x="62" y="170" width="23" height="23" as="geometry" />
        </mxCell>
        <mxCell id="0-xUmUD8GGzfCyBg8B6Y-20" value="" style="curved=1;startArrow=none;endArrow=block;exitX=1.0169836956521738;exitY=0.5084918478260869;entryX=0.016983695652173912;entryY=0.5084918478260869;" edge="1" source="0-xUmUD8GGzfCyBg8B6Y-19" parent="1">
          <mxGeometry relative="1" as="geometry">
            <Array as="points" />
            <mxPoint x="135" y="182" as="targetPoint" />
          </mxGeometry>
        </mxCell>
        <mxCell id="0-xUmUD8GGzfCyBg8B6Y-22" value="&lt;font style=&quot;font-size: 6px;&quot;&gt;list1&lt;/font&gt;" style="rounded=1;whiteSpace=wrap;html=1;" vertex="1" parent="1">
          <mxGeometry x="221" y="28" width="43" height="20" as="geometry" />
        </mxCell>
        <mxCell id="0-xUmUD8GGzfCyBg8B6Y-23" value="&lt;font style=&quot;font-size: 6px;&quot;&gt;list2&lt;/font&gt;" style="rounded=1;whiteSpace=wrap;html=1;" vertex="1" parent="1">
          <mxGeometry x="138" y="104" width="43" height="20" as="geometry" />
        </mxCell>
        <mxCell id="0-xUmUD8GGzfCyBg8B6Y-25" value="2" style="ellipse;aspect=fixed;strokeWidth=2;whiteSpace=wrap;" vertex="1" parent="1">
          <mxGeometry x="135" y="172" width="23" height="23" as="geometry" />
        </mxCell>
        <mxCell id="0-xUmUD8GGzfCyBg8B6Y-26" value="" style="curved=1;startArrow=none;endArrow=block;exitX=1.0169836956521738;exitY=0.516983695652174;entryX=0.016983695652173912;entryY=0.516983695652174;" edge="1" source="0-xUmUD8GGzfCyBg8B6Y-25" parent="1">
          <mxGeometry relative="1" as="geometry">
            <Array as="points" />
            <mxPoint x="208" y="184" as="targetPoint" />
          </mxGeometry>
        </mxCell>
        <mxCell id="0-xUmUD8GGzfCyBg8B6Y-27" value="2" style="ellipse;aspect=fixed;strokeWidth=2;whiteSpace=wrap;" vertex="1" parent="1">
          <mxGeometry x="208" y="172" width="23" height="23" as="geometry" />
        </mxCell>
        <mxCell id="0-xUmUD8GGzfCyBg8B6Y-28" value="" style="curved=1;startArrow=none;endArrow=block;exitX=1.033967391304348;exitY=0.5084918478260869;entryX=-0.018002717391304348;entryY=0.5084918478260869;" edge="1" source="0-xUmUD8GGzfCyBg8B6Y-27" parent="1">
          <mxGeometry relative="1" as="geometry">
            <Array as="points" />
            <mxPoint x="283" y="184" as="targetPoint" />
          </mxGeometry>
        </mxCell>
        <mxCell id="0-xUmUD8GGzfCyBg8B6Y-29" value="3" style="ellipse;aspect=fixed;strokeWidth=2;whiteSpace=wrap;" vertex="1" parent="1">
          <mxGeometry x="281" y="172" width="23" height="23" as="geometry" />
        </mxCell>
        <mxCell id="0-xUmUD8GGzfCyBg8B6Y-30" value="" style="curved=1;startArrow=none;endArrow=block;exitX=1.033967391304348;exitY=0.516983695652174;entryX=-0.00875;entryY=0.515625;" edge="1" source="0-xUmUD8GGzfCyBg8B6Y-29" parent="1">
          <mxGeometry relative="1" as="geometry">
            <Array as="points" />
            <mxPoint x="355" y="184" as="targetPoint" />
          </mxGeometry>
        </mxCell>
        <mxCell id="0-xUmUD8GGzfCyBg8B6Y-31" value="3" style="ellipse;aspect=fixed;strokeWidth=2;whiteSpace=wrap;" vertex="1" parent="1">
          <mxGeometry x="354" y="172" width="23" height="23" as="geometry" />
        </mxCell>
        <mxCell id="0-xUmUD8GGzfCyBg8B6Y-32" value="" style="curved=1;startArrow=none;endArrow=block;exitX=1.033967391304348;exitY=0.516983695652174;entryX=-0.00875;entryY=0.515625;" edge="1" source="0-xUmUD8GGzfCyBg8B6Y-31" parent="1">
          <mxGeometry relative="1" as="geometry">
            <Array as="points" />
            <mxPoint x="428" y="184" as="targetPoint" />
          </mxGeometry>
        </mxCell>
        <mxCell id="0-xUmUD8GGzfCyBg8B6Y-33" style="edgeStyle=orthogonalEdgeStyle;rounded=0;orthogonalLoop=1;jettySize=auto;html=1;" edge="1" source="0-xUmUD8GGzfCyBg8B6Y-34" parent="1">
          <mxGeometry relative="1" as="geometry">
            <mxPoint x="496" y="184" as="targetPoint" />
          </mxGeometry>
        </mxCell>
        <mxCell id="0-xUmUD8GGzfCyBg8B6Y-34" value="4" style="ellipse;aspect=fixed;strokeWidth=2;whiteSpace=wrap;" vertex="1" parent="1">
          <mxGeometry x="427" y="171" width="25" height="25" as="geometry" />
        </mxCell>
      </root>
    </mxGraphModel>
  </diagram>
</mxfile>
